<svg width="10" height="10" viewBox="0 0 10 10" fill="none" xmlns="http://www.w3.org/2000/svg">
<path d="M6.75 5L9.625 2.125C10.125 1.625 10.125 0.875 9.625 0.375C9.125 -0.125 8.375 -0.125 7.875 0.375L5 3.25L2.125 0.375C1.625 -0.125 0.875 -0.125 0.375 0.375C-0.125 0.875 -0.125 1.625 0.375 2.125L3.25 5L0.375 7.875C-0.125 8.375 -0.125 9.125 0.375 9.625C0.625 9.875 0.9375 10 1.25 10C1.5625 10 1.875 9.875 2.125 9.625L5 6.75L7.875 9.625C8.125 9.875 8.4375 10 8.75 10C9.0625 10 9.375 9.875 9.625 9.625C10.125 9.125 10.125 8.375 9.625 7.875L6.75 5Z" fill="#3CE0A0"/>
</svg>
